#!OML:ASF G:\JayActor3\Patient Classification 1\Patient 1\Session 5\male.ASF
:FULLY-SPECIFIED
:DEGREES
414
root 33.2284 16.3749 -4.82054 1041.08 87.6963 1044.58
lowerback 0.742609 1.13231 0.584381
upperback 1.65046 1.5541 -1.91983
thorax 1.34371 0.808983 -2.28803
lowerneck -9.83536 1.57038 3.8969
upperneck 12.1719 1.50984 0.590035
head 5.31179 0.984478 -0.336469
rclavicle 1.48467e-014 -1.43125e-014
rhumerus -29.8727 -10.1494 -87.4806
rradius 21.6091
rwrist 11.2263
rhand -17.3338 -5.20155
rfingers 7.12502
rthumb 8.9132 -34.9933
lclavicle 1.48467e-014 -1.43125e-014
lhumerus -34.6117 18.7514 76.5028
lradius 18.5369
lwrist 5.43533
lhand -18.4739 15.0025
lfingers 7.12502
lthumb 7.81296 44.8382
rfemur -5.40516 -3.87848 20.6831
rtibia 68.9247
rfoot 0.0120488 -18.8907
rtoes 8.9557
lfemur -12.8743 10.9181 -23.5331
ltibia 24.6627
lfoot -8.2259 2.61386
ltoes -0.18418
415
root 33.3694 16.3773 -4.83492 1043.75 87.6737 1047.31
lowerback 0.752566 1.07671 0.447594
upperback 1.72567 1.48217 -1.91297
thorax 1.40834 0.772574 -2.20398
lowerneck -9.79932 1.5996 3.91258
upperneck 12.1149 1.55324 0.554619
head 5.289 1.00263 -0.34735
rclavicle 2.48481e-015 1.27222e-014
rhumerus -30.0021 -11.0567 -87.031
rradius 20.8813
rwrist 12.2065
rhand -17.403 -5.15123
rfingers 7.12502
rthumb 8.84647 -34.9458
lclavicle 2.48481e-015 1.27222e-014
lhumerus -33.928 18.2629 77.0565
lradius 18.8587
lwrist 5.84687
lhand -18.6459 15.0648
lfingers 7.12502
lthumb 7.64695 44.9066
rfemur -6.78152 -3.59928 20.707
rtibia 70.02
rfoot -1.10319 -18.4162
rtoes 7.51297
lfemur -12.2973 11.1428 -23.5624
ltibia 24.7709
lfoot -8.63338 2.4474
ltoes -0.0903854
416
root 33.5094 16.3781 -4.84985 1045.17 87.6528 1048.81
lowerback 0.756781 1.00859 0.36653
upperback 1.80862 1.3935 -1.89953
thorax 1.48502 0.728429 -2.14443
lowerneck -9.78172 1.62821 3.92064
upperneck 12.0834 1.59421 0.532772
head 5.2771 1.02072 -0.352698
rclavicle -8.58501e-015 -7.95139e-016
rhumerus -30.1492 -11.9876 -86.553
rradius 20.221
rwrist 13.2579
rhand -17.4835 -5.10228
rfingers 7.12502
rthumb 8.76876 -34.9001
lclavicle -8.58501e-015 -7.95139e-016
lhumerus -33.2416 17.7177 77.6071
lradius 19.1918
lwrist 6.25938
lhand -18.7673 14.9789
lfingers 7.12502
lthumb 7.52973 44.8248
rfemur -8.10767 -3.32262 20.7723
rtibia 70.8966
rfoot -2.22318 -17.8855
rtoes 6.08153
lfemur -11.7509 11.4182 -23.5495
ltibia 24.9354
lfoot -9.06255 2.20946
ltoes -0.0614943
417
root 33.6483 16.3773 -4.86495 1045.73 87.6424 1049.44
lowerback 0.765674 0.927716 0.318518
upperback 1.89129 1.2876 -1.88159
thorax 1.55908 0.675946 -2.09916
lowerneck -9.78209 1.65733 3.92272
upperneck 12.0906 1.63431 0.523027
head 5.28018 1.03974 -0.353053
rclavicle -1.04238e-014 5.56597e-015
rhumerus -30.3312 -12.9008 -86.0641
rradius 19.6442
rwrist 14.302
rhand -17.5849 -5.05535
rfingers 7.12502
rthumb 8.67097 -34.8573
lclavicle -1.04238e-014 5.56597e-015
lhumerus -32.5722 17.137 78.1364
lradius 19.535
lwrist 6.64601
lhand -18.8204 14.7123
lfingers 7.12502
lthumb 7.47849 44.5601
rfemur -9.38721 -3.0514 20.8627
rtibia 71.5698
rfoot -3.41072 -17.2781
rtoes 4.62502
lfemur -11.2258 11.7304 -23.5065
ltibia 25.1358
lfoot -9.50385 1.92108
ltoes -0.0852407
418
root 33.7858 16.375 -4.87971 1045.97 87.653 1049.76
lowerback 0.786588 0.835458 0.271347
upperback 1.96949 1.16637 -1.86404
thorax 1.62148 0.615651 -2.05521
lowerneck -9.79334 1.68732 3.91828
upperneck 12.123 1.67402 0.52896
head 5.29277 1.05987 -0.347277
rclavicle -1.39398e-014 1.59028e-015
rhumerus -30.5483 -13.7548 -85.5832
rradius 19.159
rwrist 15.2679
rhand -17.682 -5.01633
rfingers 7.12502
rthumb 8.57722 -34.8221
lclavicle -1.39398e-014 1.59028e-015
lhumerus -31.9253 16.5626 78.616
lradius 19.8657
lwrist 6.94301
lhand -18.7628 14.1484
lfingers 7.12502
lthumb 7.53415 43.9942
rfemur -10.6315 -2.78338 20.9562
rtibia 72.0557
rfoot -4.70123 -16.6221
rtoes 3.33019
lfemur -10.7154 12.0639 -23.4557
ltibia 25.3519
lfoot -9.95447 1.5972
ltoes -0.124526
419
root 33.9219 16.3713 -4.8934 1046.2 87.6889 1050.05
lowerback 0.818913 0.734022 0.203539
upperback 2.04217 1.03282 -1.8481
thorax 1.67131 0.548757 -2.0017
lowerneck -9.81146 1.71581 3.91489
upperneck 12.1726 1.71115 0.535548
head 5.31185 1.07917 -0.341508
rclavicle -1.76421e-015 1.74931e-014
rhumerus -30.7989 -14.5218 -85.1243
rradius 18.7685
rwrist 16.1031
rhand -17.7575 -4.97839
rfingers 7.12502
rthumb 8.50433 -34.7871
lclavicle -1.76421e-015 1.74931e-014
lhumerus -31.2985 15.935 79.0828
lradius 20.2245
lwrist 7.25283
lhand -18.6554 13.511
lfingers 7.12502
lthumb 7.63773 43.3531
rfemur -11.8486 -2.51455 21.0427
rtibia 72.3672
rfoot -6.11359 -15.9378
rtoes 2.1465
lfemur -10.2162 12.4043 -23.4084
ltibia 25.5703
lfoot -10.4109 1.24851
ltoes -0.125837
420
root 34.0569 16.3659 -4.90569 1046.85 87.7553 1050.77
lowerback 0.855492 0.627604 0.0926211
upperback 2.10853 0.892793 -1.8383
thorax 1.71185 0.477881 -1.93043
lowerneck -9.82373 1.74198 3.91492
upperneck 12.2255 1.74486 0.543266
head 5.33096 1.09714 -0.336214
rclavicle -1.83876e-015 -2.38542e-015
rhumerus -31.0793 -15.1689 -84.7073
rradius 18.4741
rwrist 16.7526
rhand -17.8126 -4.93718
rfingers 7.12502
rthumb 8.45117 -34.7481
lclavicle -1.83876e-015 -2.38542e-015
lhumerus -30.6906 15.2357 79.5478
lradius 20.6297
lwrist 7.62858
lhand -18.5415 12.9259
lfingers 7.12502
lthumb 7.74766 42.764
rfemur -13.0477 -2.23743 21.104
rtibia 72.5144
rfoot -7.64557 -15.249
rtoes 0.984022
lfemur -9.72759 12.7459 -23.3826
ltibia 25.7809
lfoot -10.8698 0.878803
ltoes -0.0780311
421
root 34.1908 16.3589 -4.91648 1048.03 87.8576 1052.01
lowerback 0.891462 0.516013 -0.0667279
upperback 2.17585 0.746318 -1.83494
thorax 1.75359 0.403051 -1.83862
lowerneck -9.8363 1.76482 3.91888
upperneck 12.2688 1.77387 0.547378
head 5.34711 1.11254 -0.333068
rclavicle 1.70209e-015 -1.35174e-014
rhumerus -31.3712 -15.6809 -84.3458
rradius 18.2719
rwrist 17.1876
rhand -17.8318 -4.89978
rfingers 7.12502
rthumb 8.43267 -34.7114
lclavicle 1.70209e-015 -1.35174e-014
lhumerus -30.0944 14.4402 80.0272
lradius 21.1061
lwrist 8.11578
lhand -18.4423 12.4817
lfingers 7.12502
lthumb 7.84348 42.3162
rfemur -14.2265 -1.9573 21.1335
rtibia 72.5017
rfoot -9.25151 -14.5956
rtoes -0.148466
lfemur -9.2462 13.0695 -23.3841
ltibia 25.98
lfoot -11.3236 0.502716
ltoes 0.01429
422
root 34.3237 16.3501 -4.92609 1049.89 87.9891 1053.92
lowerback 0.924828 0.40142 -0.266855
upperback 2.24374 0.5963 -1.83852
thorax 1.79779 0.325792 -1.73106
lowerneck -9.84452 1.7858 3.93366
upperneck 12.2967 1.80056 0.538861
head 5.3579 1.1261 -0.335905
rclavicle 5.00689e-015 -7.15625e-015
rhumerus -31.6703 -16.0354 -84.0545
rradius 18.1626
rwrist 17.3831
rhand -17.8349 -4.86474
rfingers 7.12502
rthumb 8.42969 -34.6765
lclavicle 5.00689e-015 -7.15625e-015
lhumerus -29.5161 13.5625 80.5104
lradius 21.6597
lwrist 8.69951
lhand -18.3562 12.2207
lfingers 7.12502
lthumb 7.9266 42.0521
rfemur -15.3827 -1.66756 21.1299
rtibia 72.3329
rfoot -10.7989 -14.0445
rtoes -1.21773
lfemur -8.76811 13.3631 -23.4143
ltibia 26.167
lfoot -11.7779 0.140228
ltoes 0.0744329
423
root 34.4559 16.3396 -4.93498 1052.5 88.1466 1056.57
lowerback 0.956516 0.285393 -0.494315
upperback 2.31385 0.444881 -1.84954
thorax 1.84612 0.247375 -1.61583
lowerneck -9.86144 1.80421 3.94863
upperneck 12.316 1.82323 0.529975
head 5.36742 1.13746 -0.339156
rclavicle -6.12505e-015 1.98785e-014
rhumerus -31.9679 -16.2258 -83.8426
rradius 18.1439
rwrist 17.3309
rhand -17.8082 -4.8486
rfingers 7.12502
rthumb 8.45547 -34.6593
lclavicle -6.12505e-015 1.98785e-014
lhumerus -28.9539 12.6049 80.9938
lradius 22.2934
lwrist 9.37315
lhand -18.2819 12.1533
lfingers 7.12502
lthumb 7.99825 41.9819
rfemur -16.5118 -1.37332 21.0944
rtibia 72.0102
rfoot -12.2371 -13.6366
rtoes -2.22146
lfemur -8.29378 13.6094 -23.4712
ltibia 26.3438
lfoot -12.2273 -0.191385
ltoes 0.0772343
